<?xml version="1.0" encoding="UTF-8"?>
<svg id="Layer_2" data-name="Layer 2" xmlns="http://www.w3.org/2000/svg" viewBox="0 0 1179.59 1078.18">
  <defs>
    <style>
      .cls-1 {
        fill: #c574af;
      }

      .cls-2 {
        fill: #7b357e;
      }

      .cls-3 {
        fill: #7a7ebc;
      }

      .cls-4 {
        fill: #fff;
      }

      .cls-5 {
        fill: #3b449c;
      }
    </style>
  </defs>
  <g id="Layer_1-2" data-name="Layer 1">
    <g>
      <path class="cls-2" d="M457.12,276.52c24.52,19.62,46.13,49.34,70.95,69.55,3.8,5.13,4.79,9.34.47,14.52l-50.98,53.01,24.48,23.48,46.15-46.83c8.89-4.08,18.07-3.49,27.35-1.16-9.34-30.23,3.91-60.16,37.52-62.97,31.04-2.6,63.49,15.86,87.98,33.02l52.32-37.23c-2.05-10.64-3.92-20.19,2.75-29.75,12.31-17.62,41.65-13.92,48.21,6.66,7.28,22.82-12.37,41.57-34.78,35.7l-31.97,57.1c23.16,27.05,56.79,75.92,39.68,112.68-10.75,23.09-40.66,26.45-62.7,19.8,1.86,8.79,4.01,18.79-.19,27.31-2.23,4.53-11.74,13.8-15.77,18.2-8.73,9.51-18.36,18.38-27.03,27.98l18,16.03,2.28.36,45.2-45.89c8.03-6.39,16.17,3.58,22.02,8.96,8.31,7.63,15.82,16.27,23.96,24.09,10.79,10.35,25.96,22.51,35.5,33.43.78.9,1.47,1.88,1.77,3.05l-157.39,161.41c-21.07-19.16-41.54-39.7-61.84-59.95-5.28-5.27-13.5-8.66-11.32-18.26l52.42-55.69c.62-1.16.06-1.66-.54-2.54-3.42-5.09-12.16-10.69-16.08-15.99l-47.47,49.53c-1.54,1.39-4.29,3.49-6.28,3.8-2.89.46-17.53-2.35-21.43-3.14-61.84-12.59-125.37-73.09-144.07-132.93-2.39-7.64-7.3-19.8-1.73-26.26l52.03-54.01-24.55-23.26-47.12,48.58c-4.98,4.06-11.7,2.75-15.89-1.8l-74.37-73.72,156.36-159.36,1.88-.85c1.41,1.11,2.84,2.22,4.23,3.33ZM783.25,302.41c-10.36-8.36-18.23,13.34-4.24,12.76,7.04-.29,8.69-9.17,4.24-12.76ZM682.53,371.12c-20.4-12.15-43.76-26.21-68.53-24.05-34.5,3.01-17.23,46.52-6.99,65.06,19.4,35.1,60.93,73.09,98.54,87.46,36.49,13.95,66.66,8.28,51.69-37.69-5.97-18.35-18.5-36.48-31.21-50.79l-22.96,40.03c-9.54,6.77-19.9-1.96-15.76-12.76l24.09-41.96-11.36-11.16-42.46,30.38c-10.07,3.05-17.89-6.92-11.58-15.58s26.87-18.04,35.03-25.97c.97-.95,1.89-1.32,1.51-2.97ZM727.53,366.11c-.43-.44-9.81,4.53-8.85,7.31,2.83,8.13,9.55-6.59,8.85-7.31ZM541.53,428.11l-38.49,37.98-34.49-30.98c-3.31,8.74-3.78,17.78-2.57,27.05l19.47,21.3-61.76,64.34c5.48,24.29,19.09,47.75,34.87,66.77,2.06,2.48,12.78,14.76,14.67,15.32,6.63,1.98,24.23-4.78,30.96-7.62,36.37-15.38,76.24-53.53,88.37-91.63,1.83-5.75,5.83-20.26,3.44-25.52-.97-2.14-14.1-14.59-17-18-15.01-17.69-29.99-36.78-37.5-59.01Z"/>
      <path class="cls-5" d="M728.03,894.49c-106.67,66.26-222.6,123.55-345.9,151.74-96.6,22.08-221.79,30.77-306.33-29.7C-13.87,952.38-11.78,839.52,19.85,743.94c22.09-66.77,59.35-129.85,100.78-186.22,1.65.97-.47,2.23-.92,3.09-6.66,12.77-14.57,25-21.1,37.9-40.62,80.17-72.31,190.15-21.9,272.93,52.99,87.01,169.28,96.38,260.77,83.94,115.62-15.72,226.1-66.85,325.33-125.7"/>
      <path class="cls-3" d="M854.02,638.3c71.43-71.97,139.72-154.63,180.73-248.33,45.8-104.64,61.97-242.96-55.5-305.85-59.77-32-120.81-29.99-186.19-24.84-1.1.09-3.73.73-3.48-.98,29.79-6.64,60.04-12.98,90.5-16.01,106.27-10.55,238.66,8.95,283.96,120.03,39.48,96.81-3.1,213.71-51.3,299.64s-118.98,169.09-192.89,240.19"/>
      <path class="cls-1" d="M947.89,928.74l79.58,77c-11.32,13.88-24.51,26.01-36.95,38.84-8.78,9.05-18.81,21.95-27.92,30.07-4.52,4.04-10.2,4.74-15.28,1.42l-75.69-73.6,71.91-75.88,2.47-.44,1.9,2.59Z"/>
      <path class="cls-1" d="M915.12,896.52c2.63,2.55,11.8,10.3,12.98,12.59.4.77.67,1.23,0,1.98l-72.2,74.93-80.4-78.42,72.52-75.32c22.77,20.85,44.89,42.7,67.09,64.24Z"/>
      <path class="cls-1" d="M814.16,798.49c4.11,4.02,13.76,12,16.46,16.1.96,1.46.91,1.66.23,3.25l-71.96,74.19-80.34-77.43,74.48-74.54,2.05.98c19,19.86,39.46,38.24,59.08,57.44Z"/>
      <path class="cls-1" d="M213.12,301.68c-7.99,8.12-15.95,16.39-24.03,24.48l-2.84.83-77.68-76.39,71.62-73.43,79.29,76.56-1.39,2.39c-15.4,14.77-30,30.35-44.95,45.55Z"/>
      <path class="cls-1" d="M1067.12,875.52c12.48,11.99,24.57,24.46,37.41,36.09,4.51,6.17,4.1,9.75-.49,15.5-10.72,13.43-28.07,29.81-40.47,42.51-4.39,4.5-14.09,15.58-18.5,18.54-.93.63-1.6,1.3-2.84.83l-81.68-79.39,67.62-70.42c13.8,11.14,26.14,24.05,38.94,36.34Z"/>
      <path class="cls-1" d="M52.96,196.69c-7.79-7.7-27.99-24.84-32.87-32.63-1.91-3.04-2.09-6.72-1.28-10.21.49-2.12,19.92-22.31,23.22-25.76,14.15-14.81,29.2-28.81,43.01-43.97l79.48,77.48-72.48,73.48c-12.63-13.2-26.11-25.58-39.08-38.4Z"/>
      <path class="cls-1" d="M182.19,6.45c1.43,1.28,2.93,3.92,4.82,5.68,20.96,19.38,40.62,40.11,61.59,59.43l.98,2.05-69.54,71.48-78.43-76.62c-.16-.94,3.95-5.79,4.9-6.89,17.63-20.35,40.31-39.34,58.52-59.48,7.38-4.8,11.76-.5,17.16,4.36Z"/>
      <path class="cls-1" d="M300.19,213.76c-8.09,8.27-16.14,17.16-25.06,24.32l-78.52-76.61,69.42-72.34,79.48,78.48c-15.54,14.96-30.26,30.75-45.33,46.15Z"/>
      <path class="cls-1" d="M943.12,755.52c23.85,21.81,46.21,45.52,69.4,68.08l-68.48,70.48-79.54-78.48,67.54-70.48c3.38,3.81,7.35,6.98,11.08,10.4Z"/>
      <path class="cls-1" d="M303.16,295.5c16.13,15.56,31.73,31.78,48.11,47.1l-73.22,74.49-74.39-74.28,71.59-72.59,2.84.83c7.89,8.63,16.68,16.35,25.07,24.45Z"/>
      <path class="cls-1" d="M893.15,753.73c-9.38,9.78-19.19,19.14-28.64,28.85-2.3,2.36-14.96,17.87-17.34,17.45l-78.56-77.29,68.43-69.62,78.44,75.61-.89,2.92c-7.64,6.89-14.34,14.68-21.44,22.08Z"/>
      <path class="cls-1" d="M406.01,226.65c3.77,3.71,30.84,28.67,30.46,30.81l-69.43,69.62-75.48-73.48,69.62-70.43c15.24,13.81,30.03,28.91,44.83,43.48Z"/>
      <path class="cls-1" d="M541.53,428.11c7.51,22.23,22.49,41.32,37.5,59.01,2.89,3.41,16.03,15.87,17,18,2.38,5.26-1.61,19.77-3.44,25.52-12.13,38.1-52,76.25-88.37,91.63-6.73,2.85-24.33,9.6-30.96,7.62-1.89-.57-12.61-12.84-14.67-15.32-15.78-19.02-29.39-42.48-34.87-66.77l61.76-64.34-19.47-21.3c-1.21-9.27-.74-18.32,2.57-27.05l34.49,30.98,38.49-37.98Z"/>
      <path class="cls-1" d="M682.53,371.12c.38,1.65-.54,2.02-1.51,2.97-8.15,7.94-28.99,17.69-35.03,25.97s1.51,18.62,11.58,15.58l42.46-30.38,11.36,11.16-24.09,41.96c-4.14,10.8,6.22,19.53,15.76,12.76l22.96-40.03c12.72,14.31,25.24,32.44,31.21,50.79,14.96,45.98-15.2,51.64-51.69,37.69-37.61-14.37-79.14-52.36-98.54-87.46-10.24-18.54-27.51-62.05,6.99-65.06,24.77-2.16,48.13,11.91,68.53,24.05Z"/>
      <path class="cls-4" d="M783.25,302.41c4.45,3.59,2.81,12.47-4.24,12.76-14,.58-6.12-21.12,4.24-12.76Z"/>
      <path class="cls-4" d="M727.53,366.11c.7.72-6.02,15.43-8.85,7.31-.97-2.78,8.41-7.75,8.85-7.31Z"/>
    </g>
  </g>
</svg>